<?xml version="1.0" encoding="UTF-8"?>
<svg width="30px" height="23px" viewBox="0 0 30 23" version="1.1" xmlns="http://www.w3.org/2000/svg" xmlns:xlink="http://www.w3.org/1999/xlink">
    <title>证件</title>
    <g id="页面-1" stroke="none" stroke-width="1" fill="none" fill-rule="evenodd">
        <g id="8" transform="translate(-329.000000, -288.000000)" fill-rule="nonzero">
            <g id="证件" transform="translate(329.000000, 288.000000)">
                <path d="M6.21263694,9.21057182 C6.21263694,10.9312511 7.62451982,12.3261373 9.36616561,12.3261373 C11.1078114,12.3261373 12.5196943,10.9312511 12.5196943,9.21057182 C12.5196943,7.48989249 11.1078114,6.09500629 9.36616561,6.09500629 C7.62451982,6.09500629 6.21263694,7.48989249 6.21263694,9.21057182 Z" id="Shape"></path>
                <path d="M25.5773248,0.00886019152 L4.43368153,0.00886019152 C2.00575796,0.00886019152 0.031133758,1.95971327 0.031133758,4.35840876 L0.031133758,18.626539 C0.031133758,21.0252345 2.00575796,22.9760876 4.43368153,22.9760876 L25.5789554,22.9760876 C28.006879,22.9760876 29.9815032,21.0252345 29.9815032,18.626539 L29.9815032,4.35840876 C29.9798726,1.95971327 28.0052484,0.00886019152 25.5773248,0.00886019152 Z M28.3492994,18.6281499 C28.3492994,20.1376044 27.105172,21.3667546 25.5773248,21.3667546 L4.43368153,21.3667546 C2.90583439,21.3667546 1.66170701,20.1376044 1.66170701,18.6281499 L1.66170701,4.35840876 C1.66170701,2.84895431 2.90583439,1.6198041 4.43368153,1.6198041 L25.5789554,1.6198041 C27.1068025,1.6198041 28.3509299,2.84895431 28.3509299,4.35840876 L28.3509299,18.6281499 L28.3492994,18.6281499 Z" id="Shape" fill="#191919"></path>
                <path d="M11.9261656,12.2037056 C12.7871083,11.4836137 13.3349809,10.4091141 13.3349809,9.21057182 C13.3349809,7.04868509 11.5543949,5.28953434 9.36616561,5.28953434 C7.17793631,5.28953434 5.39571975,7.04868509 5.39571975,9.21057182 C5.39571975,10.4091141 5.94359236,11.4836137 6.80453503,12.2037056 C5.28321019,13.0784482 4.25757962,14.7071124 4.25757962,16.5677527 C4.25757962,17.0123732 4.62282803,17.3732246 5.07286624,17.3732246 C5.52290446,17.3732246 5.88815287,17.0123732 5.88815287,16.5677527 C5.88815287,14.6732826 7.44861146,13.1316093 9.36616561,13.1316093 C11.2837197,13.1316093 12.8441783,14.6732826 12.8441783,16.5677527 C12.8441783,17.0123732 13.2094268,17.3732246 13.659465,17.3732246 C14.1095032,17.3732246 14.4747516,17.0123732 14.4747516,16.5677527 C14.473121,14.7055015 13.4474904,13.0784482 11.9261656,12.2037056 Z M7.02629299,9.21057182 C7.02629299,7.93631518 8.07475159,6.90047825 9.36453503,6.90047825 C10.6543185,6.90047825 11.7027771,7.93631518 11.7027771,9.21057182 C11.7027771,10.4848285 10.6543185,11.5206654 9.36453503,11.5206654 C8.07475159,11.5206654 7.02629299,10.4848285 7.02629299,9.21057182 Z M25.0832611,7.37731765 L17.9951592,7.37731765 C17.545121,7.37731765 17.1798726,7.73816908 17.1798726,8.1827896 C17.1798726,8.62741012 17.545121,8.98826156 17.9951592,8.98826156 L25.0832611,8.98826156 C25.5332994,8.98826156 25.8985478,8.62741012 25.8985478,8.1827896 C25.8985478,7.73816908 25.5349299,7.37731765 25.0832611,7.37731765 L25.0832611,7.37731765 Z M25.0832611,11.2790238 L17.9951592,11.2790238 C17.545121,11.2790238 17.1798726,11.6398752 17.1798726,12.0844958 C17.1798726,12.5291163 17.545121,12.8899677 17.9951592,12.8899677 L25.0832611,12.8899677 C25.5332994,12.8899677 25.8985478,12.5291163 25.8985478,12.0844958 C25.8985478,11.6398752 25.5349299,11.2790238 25.0832611,11.2790238 L25.0832611,11.2790238 Z M25.0832611,15.0051371 L17.9951592,15.0051371 C17.545121,15.0051371 17.1798726,15.3659885 17.1798726,15.810609 C17.1798726,16.2552295 17.545121,16.616081 17.9951592,16.616081 L25.0832611,16.616081 C25.5332994,16.616081 25.8985478,16.2552295 25.8985478,15.810609 C25.8985478,15.3659885 25.5349299,15.0051371 25.0832611,15.0051371 L25.0832611,15.0051371 Z" id="Shape" fill="#191919"></path>
            </g>
        </g>
    </g>
</svg>