<?xml version="1.0" encoding="UTF-8"?>
<svg width="117px" height="117px" viewBox="0 0 117 117" version="1.1" xmlns="http://www.w3.org/2000/svg" xmlns:xlink="http://www.w3.org/1999/xlink">
    <title>编组 7</title>
    <defs>
        <linearGradient x1="100%" y1="50%" x2="0%" y2="50%" id="linearGradient-1">
            <stop stop-color="#C61531" offset="0%"></stop>
            <stop stop-color="#EA3955" offset="100%"></stop>
        </linearGradient>
        <linearGradient x1="100%" y1="50%" x2="0%" y2="50%" id="linearGradient-2">
            <stop stop-color="#C61531" offset="0%"></stop>
            <stop stop-color="#EA3955" offset="100%"></stop>
        </linearGradient>
        <linearGradient x1="100%" y1="50%" x2="0%" y2="50%" id="linearGradient-3">
            <stop stop-color="#C61531" offset="0%"></stop>
            <stop stop-color="#EA3955" offset="100%"></stop>
        </linearGradient>
    </defs>
    <g id="-c端app酒店" stroke="none" stroke-width="1" fill="none" fill-rule="evenodd">
        <g id="电子房卡2备份-8" transform="translate(-129.000000, -397.000000)">
            <g id="编组-7" transform="translate(129.000000, 397.000000)">
                <path d="M58.5,7.94444444 C86.4210624,7.94444444 109.055556,30.5789376 109.055556,58.5 C109.055556,86.4210624 86.4210624,109.055556 58.5,109.055556 C30.5789376,109.055556 7.94444444,86.4210624 7.94444444,58.5 C7.94444444,30.5789376 30.5789376,7.94444444 58.5,7.94444444 Z M58.5,21.6666667 C38.1575117,21.6666667 21.6666667,38.1575117 21.6666667,58.5 C21.6666667,78.8424883 38.1575117,95.3333333 58.5,95.3333333 C78.8424883,95.3333333 95.3333333,78.8424883 95.3333333,58.5 C95.3333333,38.1575117 78.8424883,21.6666667 58.5,21.6666667 Z" id="形状结合" fill="url(#linearGradient-1)"></path>
                <g id="锁" transform="translate(49.111111, 47.666667)">
                    <path d="M10.0208333,2.1399177 C11.171875,2.1399177 12.2579167,2.58662552 13.0785417,3.39979425 C13.901875,4.21028808 14.3541667,5.2829218 14.3541667,6.4197531 L14.3541667,10.9670782 C14.3541667,11.6170782 14.2052083,12.4489712 13.9370833,13.3102881 C13.65,14.2304527 13.2410417,15.1399177 12.75625,15.9343621 C12.26875,16.7341564 11.7270833,17.3788066 11.1908333,17.8041152 C10.8929166,18.0395062 10.4460417,18.3230453 10.0208333,18.3230453 L9.47916668,18.3230453 C9.05395834,18.3230453 8.60708336,18.042181 8.30916668,17.8041152 C7.77291669,17.3788066 7.23125002,16.7341564 6.74375001,15.9343621 C6.25895834,15.1372428 5.85000001,14.2304527 5.56020832,13.3076132 C5.29208331,12.4489712 5.143125,11.6170782 5.143125,10.9644033 L5.143125,6.4197531 C5.143125,5.28292183 5.59541666,4.21028808 6.41875,3.39979425 C7.24208335,2.58662552 8.32812499,2.1399177 9.47916668,2.1399177 L10.0208333,2.1399177 M10.0208333,0 L9.47916666,0 C5.90416666,0 2.97916666,2.88888889 2.97916666,6.4197531 L2.97916666,10.9670782 C2.97916666,14.4979424 5.90416666,20.462963 9.47916666,20.462963 L10.0208333,20.462963 C13.5958333,20.462963 16.5208333,14.4979424 16.5208333,10.9670782 L16.5208333,6.4197531 C16.5208333,2.88888889 13.5958333,0 10.0208333,0 Z" id="形状" fill="url(#linearGradient-2)"></path>
                    <path d="M17.2060417,7.22222222 L2.29395833,7.22222222 C1.03187499,7.22222222 0,8.18518518 0,9.36213992 L0,19.526749 C0,20.7037037 1.03187499,21.6666667 2.29395833,21.6666667 L17.2060417,21.6666667 C18.468125,21.6666667 19.5,20.7037037 19.5,19.526749 L19.5,9.36213992 C19.5,8.18518518 18.468125,7.22222222 17.2060417,7.22222222 Z M10.8983333,16.6111111 C10.8983333,17.2022634 10.38375,17.68107 9.75,17.68107 C9.11625002,17.68107 8.60166668,17.2022634 8.60166668,16.6111111 L8.60166668,12.8662551 C8.60166668,12.2751029 9.11625002,11.7962963 9.75,11.7962963 C10.38375,11.7962963 10.8983333,12.2751029 10.8983333,12.8662551 L10.8983333,16.6111111 Z" id="形状" fill="url(#linearGradient-3)"></path>
                </g>
                <circle id="椭圆形" stroke="#DA1A23" stroke-width="0.72" cx="58.5" cy="58.5" r="58.14"></circle>
            </g>
        </g>
    </g>
</svg>