<?xml version="1.0" encoding="UTF-8"?>
<svg width="166px" height="112px" viewBox="0 0 166 112" version="1.1" xmlns="http://www.w3.org/2000/svg" xmlns:xlink="http://www.w3.org/1999/xlink">
    <title>暂无梯控</title>
    <defs>
        <linearGradient x1="50%" y1="100%" x2="50%" y2="0%" id="linearGradient-1">
            <stop stop-color="#F8FAFC" stop-opacity="0" offset="0%"></stop>
            <stop stop-color="#ECEFF4" offset="100%"></stop>
        </linearGradient>
        <linearGradient x1="50%" y1="99.9796204%" x2="50%" y2="0%" id="linearGradient-2">
            <stop stop-color="#DFE2E5" stop-opacity="0" offset="0%"></stop>
            <stop stop-color="#EEF4FE" offset="100%"></stop>
        </linearGradient>
        <linearGradient x1="50%" y1="0%" x2="50%" y2="100%" id="linearGradient-3">
            <stop stop-color="#EAEFF7" offset="0%"></stop>
            <stop stop-color="#CDDAED" offset="100%"></stop>
        </linearGradient>
        <linearGradient x1="50%" y1="0%" x2="50%" y2="100%" id="linearGradient-4">
            <stop stop-color="#EAEFF7" offset="0%"></stop>
            <stop stop-color="#CDDAED" offset="100%"></stop>
        </linearGradient>
        <linearGradient x1="50%" y1="0%" x2="50%" y2="100%" id="linearGradient-5">
            <stop stop-color="#EAEFF7" offset="0%"></stop>
            <stop stop-color="#CDDAED" offset="100%"></stop>
        </linearGradient>
        <linearGradient x1="50%" y1="99.9796204%" x2="50%" y2="0.0141858142%" id="linearGradient-6">
            <stop stop-color="#FFFFFF" stop-opacity="0.513428588" offset="0%"></stop>
            <stop stop-color="#C4D4EA" offset="100%"></stop>
        </linearGradient>
        <linearGradient x1="50%" y1="99.9796204%" x2="50%" y2="0.0141858142%" id="linearGradient-7">
            <stop stop-color="#FFFFFF" stop-opacity="0.513428588" offset="0%"></stop>
            <stop stop-color="#C4D4EA" offset="100%"></stop>
        </linearGradient>
        <linearGradient x1="50%" y1="99.9796204%" x2="50%" y2="0.0141858142%" id="linearGradient-8">
            <stop stop-color="#FFFFFF" stop-opacity="0.513428588" offset="0%"></stop>
            <stop stop-color="#C4D4EA" offset="100%"></stop>
        </linearGradient>
    </defs>
    <g id="-c端app酒店" stroke="none" stroke-width="1" fill="none" fill-rule="evenodd">
        <g id="乘坐电梯-空状态" transform="translate(-105.000000, -402.000000)">
            <g id="暂无行程" transform="translate(105.000000, 402.000000)">
                <path d="M86.0018969,111.445762 C126.413567,111.445762 166,119.189852 166,76.7834977 C166,34.3771429 128.839634,0 83,0 C37.1603658,0 0,34.3771429 0,76.7834977 C0,119.189852 45.5902266,111.445762 86.0018969,111.445762 Z" id="椭圆形" fill="url(#linearGradient-1)" fill-rule="nonzero" opacity="0.597213019"></path>
                <ellipse id="椭圆形" fill="url(#linearGradient-2)" fill-rule="nonzero" opacity="0.597213019" cx="83" cy="83.1855534" rx="53.535" ry="20.6059735"></ellipse>
                <g id="编组-4" transform="translate(57.000000, 27.000000)">
                    <path d="M26.4239896,3.59322034 C39.0330752,3.59322034 49.2547588,13.8149039 49.2547588,26.4239896 C49.2547588,39.0330752 39.0330752,49.2547588 26.4239896,49.2547588 C13.8149039,49.2547588 3.59322034,39.0330752 3.59322034,26.4239896 C3.59322034,13.8149039 13.8149039,3.59322034 26.4239896,3.59322034 Z M26.4239896,9.79014342 C17.23737,9.79014342 9.79014342,17.23737 9.79014342,26.4239896 C9.79014342,35.6106091 17.23737,43.0578357 26.4239896,43.0578357 C35.6106091,43.0578357 43.0578357,35.6106091 43.0578357,26.4239896 C43.0578357,17.23737 35.6106091,9.79014342 26.4239896,9.79014342 Z" id="形状结合" fill="url(#linearGradient-3)" fill-rule="nonzero"></path>
                    <g id="锁" transform="translate(19.762712, 18.864407)" fill-rule="nonzero">
                        <path d="M7.38606402,1.50826533 C8.23446326,1.50826533 9.03495291,1.82311572 9.63981167,2.39625655 C10.2466667,2.96751204 10.5800377,3.72353002 10.5800377,4.52479599 L10.5800377,7.72985981 C10.5800377,8.1879954 10.4702448,8.77433354 10.2726177,9.38141035 C10.0610169,10.0299644 9.75958568,10.6709772 9.40225988,11.2309207 C9.04293784,11.7946349 8.64369113,12.2489998 8.2484369,12.5487675 C8.02885121,12.7146767 7.69947268,12.9145219 7.38606402,12.9145219 L6.98681734,12.9145219 C6.67340867,12.9145219 6.34403015,12.716562 6.12444445,12.5487675 C5.72919022,12.2489998 5.32994352,11.7946349 4.97062148,11.2309207 C4.61329567,10.6690919 4.31186441,10.0299644 4.09826741,9.37952501 C3.90064028,8.77433354 3.79084745,8.1879954 3.79084745,7.72797447 L3.79084745,4.52479599 C3.79084745,3.72353004 4.12421845,2.96751204 4.73107345,2.39625655 C5.33792845,1.82311572 6.13841807,1.50826533 6.98681734,1.50826533 L7.38606402,1.50826533 M7.38606402,0 L6.98681734,0 C4.35178908,0 2.19585687,2.03615819 2.19585687,4.52479599 L2.19585687,7.72985981 C2.19585687,10.2184976 4.35178908,14.4227872 6.98681734,14.4227872 L7.38606402,14.4227872 C10.0210923,14.4227872 12.1770245,10.2184976 12.1770245,7.72985981 L12.1770245,4.52479599 C12.1770245,2.03615819 10.0210923,0 7.38606402,0 Z" id="形状" fill="url(#linearGradient-4)"></path>
                        <path d="M12.6820716,5.09039548 L1.69080979,5.09039548 C0.760564963,5.09039548 0,5.76911487 0,6.59866081 L0,13.7629211 C0,14.592467 0.760564963,15.2711864 1.69080979,15.2711864 L12.6820716,15.2711864 C13.6123164,15.2711864 14.3728814,14.592467 14.3728814,13.7629211 L14.3728814,6.59866081 C14.3728814,5.76911487 13.6123164,5.09039548 12.6820716,5.09039548 Z M8.03284368,11.7079096 C8.03284368,12.1245679 7.65355931,12.4620423 7.18644068,12.4620423 C6.71932205,12.4620423 6.34003767,12.1245679 6.34003767,11.7079096 L6.34003767,9.06844528 C6.34003767,8.65178698 6.71932205,8.31431261 7.18644068,8.31431261 C7.65355931,8.31431261 8.03284368,8.65178698 8.03284368,9.06844528 L8.03284368,11.7079096 Z" id="形状" fill="url(#linearGradient-5)"></path>
                    </g>
                    <circle id="椭圆形" stroke="#D9E0EA" stroke-width="0.5" cx="26.5" cy="26.5" r="26.5"></circle>
                </g>
                <g id="编组-2" transform="translate(44.260310, 21.040056)" fill-rule="nonzero">
                    <path d="M64.12492,7.0202055 C62.1672004,7.0202055 60.5801551,5.44867897 60.5801551,3.51010275 C60.5801551,1.57152653 62.1672004,0 64.12492,0 C66.0826396,0 67.6696849,1.57152653 67.6696849,3.51010275 C67.6696849,4.44103988 67.2962197,5.33384825 66.6314473,5.99212021 C65.966675,6.65039217 65.0650501,7.0202055 64.12492,7.0202055 Z" id="路径" fill="url(#linearGradient-6)"></path>
                    <path d="M7.08952983,21.4307441 C3.17409063,21.4307441 -1.24344979e-14,18.287691 -1.24344979e-14,14.4105386 C-1.24344979e-14,10.5333861 3.17409058,7.39033305 7.08952978,7.39033305 C11.004969,7.39033305 14.1790597,10.5333861 14.1790597,14.4105385 C14.1732626,18.2853107 11.0025653,21.4250036 7.08952983,21.4307441 Z" id="路径" fill="url(#linearGradient-7)"></path>
                    <path d="M29.1915437,72.8835183 C26.8781945,72.8905398 24.788672,71.5160629 23.8984551,69.4017256 C23.0082381,67.2873883 23.4928938,64.8501765 25.126164,63.2278854 C26.7594342,61.6055943 29.2192082,61.1181694 31.3571578,61.9931615 C33.4951073,62.8681537 34.8896007,64.9329985 34.8896007,67.2237376 C34.8864012,70.3414285 32.3399969,72.8707155 29.1915437,72.8835183 L29.1915437,72.8835183 Z" id="路径" fill="url(#linearGradient-8)"></path>
                </g>
            </g>
        </g>
    </g>
</svg>