<?xml version="1.0" encoding="UTF-8"?>
<svg width="16px" height="14px" viewBox="0 0 16 14" version="1.1" xmlns="http://www.w3.org/2000/svg" xmlns:xlink="http://www.w3.org/1999/xlink">
    <title>拨打电话</title>
    <g id="页面-1" stroke="none" stroke-width="1" fill="none" fill-rule="evenodd">
        <g id="14" transform="translate(-332.000000, -139.000000)" fill="#000000" fill-rule="nonzero">
            <g id="拨打电话" transform="translate(332.000000, 139.000000)">
                <path d="M11.25,13.8181818 C11.8391114,13.8280844 12.4239614,13.7166844 12.9681818,13.4909091 C14.4954545,12.8272727 14.9318182,12.2181818 15.0227273,11.8272727 C15.0841989,11.4335889 14.9462491,11.0350672 14.6545454,10.7636364 C14.3818182,10.4454546 12.9818182,8.86363639 11.9272727,8.84545454 C11.4934732,8.83881615 11.0796326,9.0273806 10.8,9.3590909 C10.5979561,9.57411424 10.355438,9.74712085 10.0863636,9.86818182 C9.79051924,9.99550304 9.47207425,10.0619746 9.14999999,10.0636364 L9.11363636,10.0636364 C7.14999998,10.0318182 4.87727272,7.83636364 4.84545453,5.93636362 C4.83401437,5.31054342 5.10233412,4.71224038 5.57727271,4.30454547 C5.91170043,4.047101 6.10807648,3.64931361 6.10909092,3.22727271 C6.10909092,2.17727271 4.45454545,0.822727246 4.12727272,0.559090908 C3.83078083,0.266065004 3.41031515,0.135517188 2.99999999,0.209090898 C2.59545453,0.29999998 1.96818181,0.718181816 1.28181819,2.19545453 C1.03847127,2.74574248 0.923449985,3.34416398 0.945454531,3.94545455 C1.04090908,9.2090909 5.72727271,13.7318182 11.1818182,13.8181818 L11.25,13.8181818 Z M11.9136364,9.53181818 C12.4818182,9.53181818 13.5636364,10.5590909 14.1090909,11.2 C14.2863636,11.4045454 14.3590909,11.5681818 14.3363636,11.6545455 C14.3136364,11.7409091 14.1636363,12.2045455 12.6772727,12.85 C12.2231541,13.0352224 11.7357634,13.1249642 11.2454546,13.1136364 L11.1818182,13.1136364 C6.18181818,13.0590909 1.73636366,8.7590909 1.63636364,3.93181817 C1.61560811,3.43107724 1.70886313,2.93216291 1.90909092,2.47272728 C2.57727274,1.03636363 3.0909091,0.881818193 3.14545455,0.868181816 C3.2,0.854545439 3.35454547,0.868181816 3.63636362,1.08636364 C4.29999998,1.61363638 5.35454545,2.66363638 5.36363636,3.22272728 C5.36363636,3.5090909 5.28636362,3.57727272 5.03181819,3.82727271 C4.75079727,4.07925279 4.52353147,4.3853659 4.36363637,4.72727271 C4.1888903,5.10778146 4.10041606,5.52221345 4.10454547,5.94090909 C4.1409091,8.21363638 6.74090911,10.7045455 9.06818182,10.7409091 L9.11818183,10.7409091 C9.5336695,10.7373207 9.94443174,10.6523887 10.3272727,10.4909091 C10.6798871,10.3372941 10.9982434,10.1147538 11.2636364,9.83636362 C11.5363636,9.60454545 11.6045455,9.53636362 11.9136364,9.52727271 L11.9136364,9.53181818 Z" id="形状"></path>
            </g>
        </g>
    </g>
</svg>