<?xml version="1.0" encoding="UTF-8"?>
<svg width="16px" height="16px" viewBox="0 0 16 16" version="1.1" xmlns="http://www.w3.org/2000/svg" xmlns:xlink="http://www.w3.org/1999/xlink">
    <title>关闭</title>
    <g id="页面-1" stroke="none" stroke-width="1" fill="none" fill-rule="evenodd">
        <g id="8备份-7" transform="translate(-341.000000, -675.000000)" fill="#9B9B9B" fill-rule="nonzero">
            <g id="关闭" transform="translate(341.000000, 675.000000)">
                <path d="M15.5555556,16 C15.4409877,16 15.3283951,15.9565432 15.2414815,15.8696296 L0.130370375,0.758518521 C-0.0434567917,0.584691354 -0.0434567917,0.304197542 0.130370375,0.130370375 C0.304197542,-0.0434567917 0.584691354,-0.0434567917 0.758518521,0.130370375 L15.8696296,15.2414815 C16.0434568,15.4153086 16.0434568,15.6958025 15.8696296,15.8696296 C15.782716,15.9565432 15.6701235,16 15.5555556,16 Z" id="Shape"></path>
                <path d="M0.444444438,16 C0.329876542,16 0.217283938,15.9565432 0.130370375,15.8696296 C-0.0434567917,15.6958025 -0.0434567917,15.4153086 0.130370375,15.2414815 L15.2414815,0.130370375 C15.4153086,-0.0434567917 15.6958025,-0.0434567917 15.8696296,0.130370375 C16.0434568,0.304197542 16.0434568,0.584691354 15.8696296,0.758518521 L0.758518521,15.8696296 C0.671604938,15.9565432 0.559012354,16 0.444444438,16 Z" id="Shape"></path>
            </g>
        </g>
    </g>
</svg>