<?xml version="1.0" encoding="UTF-8"?>
<svg width="44px" height="44px" viewBox="0 0 44 44" version="1.1" xmlns="http://www.w3.org/2000/svg" xmlns:xlink="http://www.w3.org/1999/xlink">
    <title>成功</title>
    <g id="-c端app酒店" stroke="none" stroke-width="1" fill="none" fill-rule="evenodd">
        <g id="无需额外支付" transform="translate(-166.000000, -344.000000)" fill="#3FCF77">
            <g id="Group-6" transform="translate(30.000000, 313.000000)">
                <g id="成功" transform="translate(136.000000, 31.000000)">
                    <path d="M22.0004413,44 C9.87002837,44 0,34.1303955 0,22.0002207 C0,9.86982522 9.87029317,0 22.0004413,0 C34.130413,0 44,9.86982522 44,22.0002207 C44,34.1303955 34.130413,44 22.0004413,44 L22.0004413,44 Z M35.2795387,13.4908582 C34.6583223,12.878283 33.230653,12.5433613 32.614431,13.1647129 L19.2775661,26.4178791 L12.1644586,19.3496834 C11.5518932,18.7235003 10.2724043,19.2591268 9.64753135,19.8668706 C9.01806543,20.4755452 9.00526742,21.4761437 9.61694098,22.0974953 L18.0912307,30.6919431 C18.0957791,30.696021 18.0999262,30.696021 18.1044746,30.7003649 C18.1088001,30.7043985 18.1088001,30.7091856 18.1131701,30.7132635 C18.2129233,30.8121975 18.3387183,30.8732777 18.4560855,30.9379483 C18.5168203,30.9724333 18.5688596,31.0239393 18.6295944,31.0500912 C18.8200259,31.1269631 19.0236032,31.1666667 19.2291388,31.1666667 C19.4286897,31.1666667 19.632789,31.1272172 19.8236889,31.0500912 C19.8848696,31.0239393 19.9321375,30.9724333 19.9933183,30.9418046 C20.1104179,30.8766464 20.2362129,30.816763 20.3362336,30.7175631 C20.3405591,30.7130419 20.3405591,30.7091856 20.3449291,30.7041768 C20.3492546,30.7000989 20.3531341,30.7000989 20.3579055,30.695755 L35.2921137,15.7171834 C35.9090046,15.100353 35.9003536,14.1036107 35.2795387,13.4908582 L35.2795387,13.4908582 Z" id="Shape"></path>
                </g>
            </g>
        </g>
    </g>
</svg>