<?xml version="1.0" encoding="UTF-8"?>
<svg width="166px" height="112px" viewBox="0 0 166 112" version="1.1" xmlns="http://www.w3.org/2000/svg" xmlns:xlink="http://www.w3.org/1999/xlink">
    <title>暂无内容</title>
    <defs>
        <linearGradient x1="50%" y1="100%" x2="50%" y2="0%" id="linearGradient-1">
            <stop stop-color="#F8FAFC" stop-opacity="0" offset="0%"></stop>
            <stop stop-color="#ECEFF4" offset="100%"></stop>
        </linearGradient>
        <linearGradient x1="50%" y1="99.9796204%" x2="50%" y2="0%" id="linearGradient-2">
            <stop stop-color="#DFE2E5" stop-opacity="0" offset="0%"></stop>
            <stop stop-color="#EEF4FE" offset="100%"></stop>
        </linearGradient>
        <linearGradient x1="50%" y1="99.9796204%" x2="50%" y2="0.0141858142%" id="linearGradient-3">
            <stop stop-color="#FFFFFF" stop-opacity="0.513428588" offset="0%"></stop>
            <stop stop-color="#C4D4EA" offset="100%"></stop>
        </linearGradient>
        <linearGradient x1="50%" y1="99.9796204%" x2="50%" y2="0.0141858142%" id="linearGradient-4">
            <stop stop-color="#FFFFFF" stop-opacity="0.513428588" offset="0%"></stop>
            <stop stop-color="#C4D4EA" offset="100%"></stop>
        </linearGradient>
        <linearGradient x1="50%" y1="99.9796204%" x2="50%" y2="0.0141858142%" id="linearGradient-5">
            <stop stop-color="#FFFFFF" stop-opacity="0.513428588" offset="0%"></stop>
            <stop stop-color="#C4D4EA" offset="100%"></stop>
        </linearGradient>
        <linearGradient x1="50%" y1="0%" x2="50%" y2="100%" id="linearGradient-6">
            <stop stop-color="#EAEFF7" offset="0%"></stop>
            <stop stop-color="#CDDAED" offset="100%"></stop>
        </linearGradient>
        <linearGradient x1="50%" y1="0%" x2="50%" y2="100%" id="linearGradient-7">
            <stop stop-color="#EEF2F8" offset="0%"></stop>
            <stop stop-color="#E9F2FF" offset="100%"></stop>
        </linearGradient>
        <linearGradient x1="50%" y1="0%" x2="50%" y2="100%" id="linearGradient-8">
            <stop stop-color="#EEF2F8" offset="0%"></stop>
            <stop stop-color="#E9F2FF" offset="100%"></stop>
        </linearGradient>
        <linearGradient x1="50%" y1="0%" x2="50%" y2="100%" id="linearGradient-9">
            <stop stop-color="#EEF2F8" offset="0%"></stop>
            <stop stop-color="#E9F2FF" offset="100%"></stop>
        </linearGradient>
    </defs>
    <g id="-c端app酒店" stroke="none" stroke-width="1" fill="none" fill-rule="evenodd">
        <g id="空状态" transform="translate(-801.000000, -315.000000)">
            <g id="暂无内容" transform="translate(801.000000, 315.000000)">
                <path d="M86.0018969,111.445762 C126.413567,111.445762 166,119.189852 166,76.7834977 C166,34.3771429 128.839634,1.13686838e-14 83,1.13686838e-14 C37.1603658,1.13686838e-14 0,34.3771429 0,76.7834977 C0,119.189852 45.5902266,111.445762 86.0018969,111.445762 Z" id="椭圆形" fill="url(#linearGradient-1)" fill-rule="nonzero" opacity="0.603386289"></path>
                <ellipse id="椭圆形" fill="url(#linearGradient-2)" fill-rule="nonzero" opacity="0.603386289" cx="83" cy="83.1855534" rx="53.535" ry="20.6059735"></ellipse>
                <path d="M106.196824,31.0602615 C104.239105,31.0602615 102.652059,29.4887349 102.652059,27.5501587 C102.652059,25.6115825 104.239105,24.040056 106.196824,24.040056 C108.154544,24.040056 109.741589,25.6115825 109.741589,27.5501587 C109.741589,28.4810958 109.368124,29.3739042 108.703352,30.0321762 C108.038579,30.6904481 107.136954,31.0602615 106.196824,31.0602615 Z" id="路径" fill="url(#linearGradient-3)" fill-rule="nonzero"></path>
                <path d="M46.7169897,52.8708 C42.8015505,52.8708 39.6274598,49.727747 39.6274598,45.8505945 C39.6274598,41.9734421 42.8015504,38.830389 46.7169896,38.830389 C50.6324288,38.830389 53.8065195,41.973442 53.8065195,45.8505944 C53.8007224,49.7253667 50.6300251,52.8650596 46.7169897,52.8708 Z" id="路径" fill="url(#linearGradient-4)" fill-rule="nonzero"></path>
                <path d="M71.0460567,98.7235743 C68.7327075,98.7305958 66.643185,97.3561189 65.7529681,95.2417816 C64.8627511,93.1274443 65.3474068,90.6902324 66.980677,89.0679413 C68.6139472,87.4456502 71.0737212,86.9582253 73.2116707,87.8332175 C75.3496203,88.7082096 76.7441137,90.7730544 76.7441137,93.0637936 C76.7409142,96.1814845 74.1945099,98.7107715 71.0460567,98.7235743 L71.0460567,98.7235743 Z" id="路径" fill="url(#linearGradient-5)" fill-rule="nonzero"></path>
                <g id="编组-5" transform="translate(48.917874, 31.877930)">
                    <path d="M44.3961649,43.0434484 L60.9468599,43.0434484" id="形状备份-3" stroke="#C4D4EA" stroke-width="1.6" stroke-linecap="round"></path>
                    <rect id="矩形" fill="url(#linearGradient-6)" fill-rule="nonzero" x="15.9826193" y="0" width="38.7206026" height="49.6" rx="3.52"></rect>
                    <path d="M0,50.0410345 L7.86374325,50.0410345 M13.251661,50.0410345 L66.1594203,50.1220697" id="形状" stroke="#C4D4EA" stroke-width="1.6" stroke-linecap="round"></path>
                    <line x1="22.1980824" y1="13.8762074" x2="33.9294719" y2="13.8762074" id="路径" stroke="#C4D4EA" stroke-width="1.6" stroke-linecap="round"></line>
                    <line x1="22.1980824" y1="22.6968969" x2="31.521277" y2="22.6968969" id="路径备份" stroke="#C4D4EA" stroke-width="1.6" stroke-linecap="round"></line>
                    <path d="M22.1980824,18.3455177 L38.7487775,18.3455177" id="形状备份-2" stroke="#C4D4EA" stroke-width="1.6" stroke-linecap="round"></path>
                    <g id="编组-4" transform="translate(37.836738, 44.584483) rotate(-42.000000) translate(-37.836738, -44.584483) translate(30.733352, 30.030345)" fill-rule="nonzero">
                        <rect id="矩形" fill="url(#linearGradient-7)" x="5.32753978" y="16.7593101" width="4.43961649" height="12.3489653" rx="2.2"></rect>
                        <rect id="矩形备份-7" fill="url(#linearGradient-8)" x="6.59600164" y="14.1131033" width="1.90269278" height="5.29241372" rx="0.95134639"></rect>
                        <ellipse id="椭圆形" stroke="#C4D4EA" stroke-width="1.6" fill="url(#linearGradient-9)" cx="7.10338638" cy="7.05655163" rx="7.10338638" ry="7.05655163"></ellipse>
                    </g>
                </g>
            </g>
        </g>
    </g>
</svg>