<?xml version="1.0" encoding="UTF-8"?>
<svg width="166px" height="112px" viewBox="0 0 166 112" version="1.1" xmlns="http://www.w3.org/2000/svg" xmlns:xlink="http://www.w3.org/1999/xlink">
    <title>暂无行程</title>
    <defs>
        <linearGradient x1="50%" y1="100%" x2="50%" y2="0%" id="linearGradient-1">
            <stop stop-color="#F8FAFC" stop-opacity="0" offset="0%"></stop>
            <stop stop-color="#ECEFF4" offset="100%"></stop>
        </linearGradient>
        <linearGradient x1="50%" y1="99.9796204%" x2="50%" y2="0%" id="linearGradient-2">
            <stop stop-color="#DFE2E5" stop-opacity="0" offset="0%"></stop>
            <stop stop-color="#EEF4FE" offset="100%"></stop>
        </linearGradient>
        <linearGradient x1="50%" y1="0%" x2="50%" y2="100%" id="linearGradient-3">
            <stop stop-color="#EAEFF7" offset="0%"></stop>
            <stop stop-color="#CDDAED" offset="100%"></stop>
        </linearGradient>
        <linearGradient x1="50%" y1="99.9796204%" x2="50%" y2="0.0141858142%" id="linearGradient-4">
            <stop stop-color="#FFFFFF" stop-opacity="0.513428588" offset="0%"></stop>
            <stop stop-color="#C4D4EA" offset="100%"></stop>
        </linearGradient>
        <linearGradient x1="50%" y1="99.9796204%" x2="50%" y2="0.0141858142%" id="linearGradient-5">
            <stop stop-color="#FFFFFF" stop-opacity="0.513428588" offset="0%"></stop>
            <stop stop-color="#C4D4EA" offset="100%"></stop>
        </linearGradient>
        <linearGradient x1="50%" y1="99.9796204%" x2="50%" y2="0.0141858142%" id="linearGradient-6">
            <stop stop-color="#FFFFFF" stop-opacity="0.513428588" offset="0%"></stop>
            <stop stop-color="#C4D4EA" offset="100%"></stop>
        </linearGradient>
    </defs>
    <g id="-c端app酒店" stroke="none" stroke-width="1" fill="none" fill-rule="evenodd">
        <g id="空状态" transform="translate(-327.000000, -315.000000)">
            <g id="编组-3" transform="translate(327.000000, 315.000000)">
                <g id="暂无行程" transform="translate(0.000000, -0.000000)">
                    <path d="M86.0018969,111.445762 C126.413567,111.445762 166,119.189852 166,76.7834977 C166,34.3771429 128.839634,-3.05524556e-13 83,-3.05524556e-13 C37.1603658,-3.05524556e-13 0,34.3771429 0,76.7834977 C0,119.189852 45.5902266,111.445762 86.0018969,111.445762 Z" id="椭圆形" fill="url(#linearGradient-1)" fill-rule="nonzero" opacity="0.597213019"></path>
                    <ellipse id="椭圆形" fill="url(#linearGradient-2)" fill-rule="nonzero" opacity="0.597213019" cx="83" cy="83.1855534" rx="53.535" ry="20.6059735"></ellipse>
                    <g id="编组-2" transform="translate(50.187610, 28.040056)">
                        <path d="M19.5471863,41.8485802 C23.2070384,48.1258122 29.9708358,51.9928039 37.290687,51.9928039 C44.6105381,51.9928039 51.3743657,48.1259199 55.0342668,41.8487159 C58.6941679,35.5715119 58.6941076,27.8376879 55.0341085,21.5605399 C51.3742564,15.2833079 44.610459,11.4163162 37.2906078,11.4163162 C29.9707566,11.4163162 23.2069291,15.2832002 19.547028,21.5604042 C15.8871269,27.8376082 15.8871872,35.5714322 19.5471863,41.8485802 L19.5471863,41.8485802 Z" id="路径" fill="url(#linearGradient-3)" fill-rule="nonzero"></path>
                        <path d="M29.0336536,18.1898941 C26.7703601,19.5456996 24.8446814,21.4598662 23.4763087,23.8068024 C22.8014833,24.9642153 22.2864785,26.1852348 21.9312941,27.4397326 C21.637009,28.4791363 21.4524376,29.5415222 21.3775797,30.6097539 M21.7696973,35.350368 C22.0435215,36.4937973 22.4479953,37.6138905 22.9831185,38.6884287" id="形状" stroke="#C4D4EA" stroke-width="1.6" stroke-linecap="round" fill-rule="nonzero"></path>
                        <path d="M51.1976197,7.0202055 C49.2399001,7.0202055 47.6528548,5.44867897 47.6528548,3.51010275 C47.6528548,1.57152653 49.2399001,0 51.1976197,0 C53.1553393,0 54.7423846,1.57152653 54.7423846,3.51010275 C54.7423846,4.44103988 54.3689194,5.33384825 53.704147,5.99212021 C53.0393746,6.65039217 52.1377498,7.0202055 51.1976197,7.0202055 Z" id="路径" fill="url(#linearGradient-4)" fill-rule="nonzero"></path>
                        <path d="M10.1622295,18.4307441 C6.24679029,18.4307441 3.07269966,15.287691 3.07269966,11.4105386 C3.07269966,7.53338615 6.24679024,4.39033305 10.1622294,4.39033305 C14.0776686,4.39033305 17.2517593,7.53338605 17.2517593,11.4105385 C17.2459623,15.2853107 14.075265,18.4250036 10.1622295,18.4307441 Z" id="路径" fill="url(#linearGradient-5)" fill-rule="nonzero"></path>
                        <path d="M23.2642433,65.8835183 C20.9508942,65.8905398 18.8613717,64.5160629 17.9711547,62.4017256 C17.0809378,60.2873883 17.5655935,57.8501765 19.1988637,56.2278854 C20.8321339,54.6055943 23.2919079,54.1181694 25.4298574,54.9931615 C27.567807,55.8681537 28.9623003,57.9329985 28.9623003,60.2237376 C28.9591009,63.3414285 26.4126966,65.8707155 23.2642433,65.8835183 L23.2642433,65.8835183 Z" id="路径" fill="url(#linearGradient-6)" fill-rule="nonzero"></path>
                        <g id="飞机" transform="translate(40.045345, 37.774371) rotate(-7.000000) translate(-40.045345, -37.774371) translate(27.854268, 32.429604)" fill="#B7C6DC" fill-rule="nonzero">
                            <path d="M22.4820303,2.34283973 L17.2069033,4.36284892 L10.5569405,0.753047347 C9.76713595,0.392073465 9.74273901,0.322830548 9.18696548,0.535458126 L6.81996662,1.44287014 C6.08378575,1.71977902 6.4348169,1.97938502 7.55856242,3.21809538 L10.8884356,6.78591155 L2.51988148,9.99027303 C3.35358819,10.1188356 8.41908099,10.509485 9.56966932,10.0718572 L23.38642,4.77824364 C24.0495029,4.52608006 24.3834439,3.77442538 24.1347993,3.09945606 C23.883709,2.42690473 23.1426673,2.08816396 22.4820303,2.34283973 L22.4820303,2.34283973 Z M6.66395621,7.86886459 L3.85087718,6.38537031 C3.01720142,5.93540121 2.69542804,5.93785062 1.44975973,6.41504584 L0.165112047,6.90709453 L2.59545629,9.426532 L6.66395621,7.86886459 L6.66395621,7.86886459 Z" id="形状" transform="translate(12.191077, 5.344767) rotate(-2.000000) translate(-12.191077, -5.344767) "></path>
                        </g>
                        <path d="M18.2084921,24.9140557 C6.77295722,26.3702407 -0.921402809,29.0928944 -0.921402809,32.2113516 C-0.921402809,35.8381387 9.48587192,38.9295678 24.0818026,40.1160258 M52.8363454,39.7599416 C66.3407242,38.4928132 75.7937922,35.5697415 75.7937922,32.1662097 C75.7937922,29.1572247 68.4053446,26.5237638 57.3609998,25.0780719" id="形状" stroke="#C4D4EA" stroke-width="1.6" stroke-linecap="round" stroke-linejoin="round" transform="translate(37.436195, 32.515041) rotate(-28.000000) translate(-37.436195, -32.515041) "></path>
                    </g>
                </g>
            </g>
        </g>
    </g>
</svg>