<?xml version="1.0" encoding="UTF-8"?>
<svg width="15px" height="15px" viewBox="0 0 15 15" version="1.1" xmlns="http://www.w3.org/2000/svg" xmlns:xlink="http://www.w3.org/1999/xlink">
    <title>定位</title>
    <g id="页面-1" stroke="none" stroke-width="1" fill="none" fill-rule="evenodd">
        <g id="1" transform="translate(-124.000000, -502.000000)" fill="#000000" fill-rule="nonzero">
            <g id="定位" transform="translate(124.000000, 502.000000)">
                <path d="M6.25,7.5 C6.25,8.19035594 6.80964406,8.75 7.5,8.75 C8.19035594,8.75 8.75,8.19035594 8.75,7.5 C8.75,6.80964406 8.19035594,6.25 7.5,6.25 C6.80964406,6.25 6.25,6.80964406 6.25,7.5 Z" id="路径"></path>
                <path d="M14.5,7 L13.9745,7 C13.7305,3.815 11.185,1.2695 8,1.0255 L8,0.5 C8,0.223857625 7.77614237,0 7.5,0 C7.22385763,0 7,0.223857625 7,0.5 L7,1.0255 C3.815,1.2695 1.2695,3.815 1.0255,7 L0.5,7 C0.223857625,7 0,7.22385763 0,7.5 C0,7.77614237 0.223857625,8 0.5,8 L1.0255,8 C1.2695,11.185 3.815,13.7305 7,13.9745 L7,14.5 C7,14.7761424 7.22385763,15 7.5,15 C7.77614237,15 8,14.7761424 8,14.5 L8,13.9745 C11.185,13.7305 13.7305,11.185 13.9745,8 L14.5,8 C14.7761424,8 15,7.77614237 15,7.5 C15,7.22385763 14.7761424,7 14.5,7 Z M8,12.9745 L8,12 C8,11.7238576 7.77614237,11.5 7.5,11.5 C7.22385763,11.5 7,11.7238576 7,12 L7,12.9745 C4.366,12.736 2.264,10.634 2.0255,8 L3,8 C3.27614237,8 3.5,7.77614237 3.5,7.5 C3.5,7.22385763 3.27614237,7 3,7 L2.0255,7 C2.264,4.366 4.366,2.264 7,2.0255 L7,3 C7,3.27614237 7.22385763,3.5 7.5,3.5 C7.77614237,3.5 8,3.27614237 8,3 L8,2.0255 C10.634,2.2645 12.736,4.366 12.9745,7 L12,7 C11.7238576,7 11.5,7.22385763 11.5,7.5 C11.5,7.77614237 11.7238576,8 12,8 L12.9745,8 C12.736,10.634 10.634,12.736 8,12.9745 L8,12.9745 Z" id="形状"></path>
            </g>
        </g>
    </g>
</svg>