<?xml version="1.0" encoding="UTF-8"?>
<svg width="5px" height="9px" viewBox="0 0 5 9" version="1.1" xmlns="http://www.w3.org/2000/svg" xmlns:xlink="http://www.w3.org/1999/xlink">
    <title>箭头小@2x</title>
    <g id="-app酒店" stroke="none" stroke-width="1" fill="none" fill-rule="evenodd">
        <g id="门店列表" transform="translate(-108.000000, -184.000000)" fill="#868689" fill-rule="nonzero">
            <g id="编组-2" transform="translate(16.000000, 160.000000)">
                <g id="箭头小" transform="translate(94.500000, 28.500000) rotate(-270.000000) translate(-94.500000, -28.500000) translate(90.000000, 26.000000)">
                    <path d="M4.1805892,0.309036696 L4.49764898,-4.4408921e-16 L8.86966555,4.25405599 C9.04232187,4.42210561 9.04456415,4.70058783 8.86966555,4.8708199 C8.78580302,4.95302962 8.6717241,4.99930027 8.55269903,4.9993822 C8.43367396,4.99946413 8.31952792,4.95335057 8.235546,4.87125639 L4.49854589,1.2357103 L0.764684979,4.87169289 C0.680839531,4.95381855 0.566801227,5 0.447849436,5 C0.328897646,5 0.214859341,4.95381855 0.131013893,4.87169289 C-0.0433210236,4.70108708 -0.0437213926,4.42557761 0.130116981,4.25449248 L4.16309934,0.327369381 L4.18103766,0.309473192 L4.1805892,0.309036696 Z" id="路径"></path>
                </g>
            </g>
        </g>
    </g>
</svg>