<?xml version="1.0" encoding="UTF-8"?>
<svg width="13px" height="13px" viewBox="0 0 13 13" version="1.1" xmlns="http://www.w3.org/2000/svg" xmlns:xlink="http://www.w3.org/1999/xlink">
    <title>搜索</title>
    <g id="-app酒店" stroke="none" stroke-width="1" fill="none" fill-rule="evenodd">
        <g id="门店列表" transform="translate(-262.000000, -182.000000)" fill="#CCCCCC" fill-rule="nonzero">
            <g id="编组-2" transform="translate(16.000000, 160.000000)">
                <g id="搜索" transform="translate(246.000000, 22.000000)">
                    <path d="M12.659763,11.9548865 L9.96975778,9.25872301 C10.7823145,8.2798344 11.271094,7.02138058 11.271094,5.64844859 C11.271094,2.52889322 8.74797703,0 5.63554701,0 C2.523117,0 0,2.52889322 0,5.64844859 C0,8.76800396 2.523117,11.2968972 5.63554701,11.2968972 C7.0202689,11.2968972 8.28833276,10.7963172 9.26945883,9.96588533 L11.9568327,12.6594261 C12.0539015,12.7567171 12.181085,12.8053333 12.3082978,12.8053333 C12.4354814,12.8053333 12.5627088,12.7566878 12.659763,12.6594261 C12.8538568,12.4648733 12.8538568,12.1494539 12.659763,11.9548865 Z M5.635547,10.3005431 C5.00851748,10.3005431 4.40077014,10.1776838 3.82917511,9.93536467 C3.27659912,9.70110425 2.78011547,9.36553804 2.3535243,8.93797026 C1.92693313,8.51040249 1.59213339,8.01279687 1.35840803,7.45894122 C1.11664233,6.88605227 0.994063712,6.2769136 0.994063712,5.64843396 C0.994063712,5.01995432 1.11664233,4.4108303 1.35840803,3.8379267 C1.59213339,3.28408569 1.92693313,2.78646543 2.3535243,2.35889765 C2.78011547,1.93132988 3.27658451,1.59576367 3.82917511,1.36150325 C4.40075553,1.11918407 5.00850286,0.996324824 5.635547,0.996324824 C6.26257652,0.996324824 6.87032386,1.11918407 7.44191889,1.36150325 C7.99449488,1.59576367 8.49097853,1.93132988 8.9175697,2.35889765 C9.34414626,2.78646543 9.67896061,3.28407104 9.91268597,3.8379267 C10.1544517,4.41081565 10.2770303,5.01995432 10.2770303,5.64843396 C10.2770303,6.2769136 10.1544517,6.88603762 9.91268597,7.45894122 C9.67896061,8.01278223 9.34416087,8.51040249 8.9175697,8.93797026 C8.49097853,9.36553804 7.99449488,9.70110425 7.44191889,9.93536467 C6.87032386,10.1776838 6.26257654,10.3005431 5.635547,10.3005431 Z" id="形状"></path>
                </g>
            </g>
        </g>
    </g>
</svg>