<?xml version="1.0" standalone="no"?><!DOCTYPE svg PUBLIC "-//W3C//DTD SVG 1.1//EN" "http://www.w3.org/Graphics/SVG/1.1/DTD/svg11.dtd"><svg class="icon" width="200px" height="184.34px" viewBox="0 0 1111 1024" version="1.1" xmlns="http://www.w3.org/2000/svg"><path d="M1098.805177 454.273451c-78.467276 88.122086-218.257226 234.202291-218.257225 234.202291s22.44012 160.035794 35.869083 269.456977c5.997685 55.7931-38.121872 80.017897-87.449176 57.987375-94.207542-43.300361-237.713131-110.884033-269.837318-126.273215-32.884869 14.687014-177.15114 81.480747-272.090107 124.810365-50.087985 21.26984-94.207542-2.223532-88.941282-58.016632 12.697538-109.391926 35.869083-268.696295 35.869083-268.696295S92.686178 542.424794 13.45822 454.273451c-28.408548-32.299729-9.713324-77.823622 45.582408-85.869298 113.634191-19.836247 289.293223-51.40455 289.293223-51.40455s96.431074-162.961494 156.963809-262.815638C538.943211-6.758367 562.114755 0.58514 565.859652 2.04799c10.474006 2.9257 26.916441 15.418439 47.835196 52.135975 59.80131 99.824887 154.740277 262.815638 154.740277 262.815638s173.406243 31.597561 285.548327 51.40455c54.564306 8.074932 72.498848 54.300993 44.850982 85.869298z" fill="#EFEFEF" /></svg>