<?xml version="1.0" encoding="UTF-8"?>
<svg width="117px" height="20px" viewBox="0 0 117 20" version="1.1" xmlns="http://www.w3.org/2000/svg" xmlns:xlink="http://www.w3.org/1999/xlink">
    <title>logo</title>
    <defs>
        <polygon id="path-1" points="0 0 6.05899953 0 6.05899953 12.2096326 0 12.2096326"></polygon>
        <polygon id="path-3" points="0 0 11.4123567 0 11.4123567 16.5049087 0 16.5049087"></polygon>
        <polygon id="path-5" points="0 0 10.0904797 0 10.0904797 19.9999512 0 19.9999512"></polygon>
        <polygon id="path-7" points="0 0 11.9072588 0 11.9072588 16.5048599 0 16.5048599"></polygon>
        <polygon id="path-9" points="0 0 11.9071795 0 11.9071795 12.2027823 0 12.2027823"></polygon>
        <polygon id="path-11" points="0 0 11.906862 0 11.906862 12.2027823 0 12.2027823"></polygon>
    </defs>
    <g id="页面-1" stroke="none" stroke-width="1" fill="none" fill-rule="evenodd">
        <g id="3备份" transform="translate(-129.000000, -52.000000)">
            <g id="logo" transform="translate(129.000000, 52.000000)">
                <path d="M47.4536646,7.79716892 C50.4143463,7.79716892 52.8633778,10.0146525 53.3234345,12.9150521 C53.3742344,13.2367401 53.4077305,13.5633097 53.4077305,13.8989912 C53.4077305,14.2341847 53.3742344,14.5609169 53.3240695,14.8811406 L53.3240695,14.8811406 L43.5393734,14.8811406 C43.9713313,16.6880936 45.5575582,18.0300063 47.4533471,18.0300063 C48.9862341,18.0300063 50.3152865,17.1539474 50.997434,15.8642662 L50.997434,15.8642662 L53.0816587,15.8642662 C52.2841002,18.2680587 50.0698595,20 47.4536646,20 C44.1659584,20 41.5008686,17.2693125 41.5008686,13.8989912 C41.5008686,10.5294836 44.1659584,7.79716892 47.4536646,7.79716892 Z M29.6193272,4.32124549 L29.6193272,7.82499323 L31.7489543,7.82499323 L31.7489543,9.79059359 L29.6193272,9.79059359 L29.6193272,20 L27.7078221,20 L27.7078221,9.79059359 L25.584545,9.79059359 L25.584545,7.82499323 L27.7078221,7.82499323 L27.7078221,4.32124549 L29.6193272,4.32124549 Z M37.5770048,4.32124549 L37.5770048,7.82499323 L39.7072669,7.82499323 L39.7072669,9.79059359 L37.5770048,9.79059359 L37.5770048,20 L35.6656585,20 L35.6656585,9.79059359 L33.5425401,9.79059359 L33.5425401,7.82499323 L35.6656585,7.82499323 L35.6656585,4.32124549 L37.5770048,4.32124549 Z M57.1196476,7.7950048 L57.1196476,8.71532233 C57.3110997,8.55960382 57.5235068,8.40779048 57.7579801,8.2864049 C58.2639154,8.02345703 58.8503368,7.94079768 59.4342181,7.92338715 L59.4342181,7.92338715 L59.6566264,7.9165531 L59.6566264,9.88215347 L59.5077192,9.88687221 C58.6352309,9.88215347 58.0394433,10.2687649 57.6638416,10.7193235 C57.3131635,11.141895 57.1196476,11.835062 57.1196476,12.8261607 L57.1196476,12.8261607 L57.1196476,19.9999512 L55.2013163,19.9999512 L55.2013163,7.7950048 L57.1196476,7.7950048 Z M4.20258062,0 C7.06277383,0 9.39004433,2.38459217 9.39004433,5.31623304 C9.39004433,6.92402255 8.67519446,8.44248138 7.46123556,9.44887527 C9.09207116,10.4910665 10.0906067,12.3155928 10.0906067,14.2955121 C10.0906067,17.4407981 7.59410906,19.9999837 4.52515999,19.9999837 L4.52515999,19.9999837 L-2.96102868e-12,19.9999837 L-2.96102868e-12,0 Z M97.3450894,7.79710383 C100.633748,7.79710383 103.299314,10.5294185 103.299314,13.8989262 C103.299314,17.2692474 100.633748,19.9999349 97.3450894,19.9999349 C94.0572245,19.9999349 91.3919759,17.2692474 91.3919759,13.8989262 C91.3919759,10.5294185 94.0572245,7.79710383 97.3450894,7.79710383 Z M83.6439432,7.79710383 C86.9324431,7.79710383 89.5983266,10.5294185 89.5983266,13.8989262 C89.5983266,17.2692474 86.9324431,19.9999349 83.6439432,19.9999349 C80.356237,19.9999349 77.6911472,17.2692474 77.6911472,13.8989262 C77.6911472,10.5294185 80.356237,7.79710383 83.6439432,7.79710383 Z M117,3.49507502 L117,19.9999349 L115.081827,19.9999349 L115.081827,18.3758739 C114.019951,19.3812915 112.605491,19.9999349 111.045775,19.9999349 C107.758228,19.9999349 105.092662,17.2692474 105.092662,13.8989262 C105.092662,10.5294185 107.758228,7.79710383 111.045775,7.79710383 C112.605491,7.79710383 114.019951,8.41639812 115.081827,9.42214115 L115.081827,9.42214115 L115.081827,3.49507502 L117,3.49507502 Z M17.8370837,7.79716892 C20.7977655,7.79716892 23.246797,10.0146525 23.7068536,12.9150521 C23.7574948,13.2367401 23.7911497,13.5633097 23.7911497,13.8989912 C23.7911497,14.2341847 23.7576535,14.5609169 23.7068536,14.8811406 L23.7068536,14.8811406 L13.9226338,14.8811406 C14.3547505,16.6880936 15.9409774,18.0300063 17.836925,18.0300063 C19.369177,18.0300063 20.6982295,17.1539474 21.3805356,15.8642662 L21.3805356,15.8642662 L23.4650778,15.8642662 C22.6672019,18.2680587 20.4529612,20 17.8370837,20 C14.5492188,20 11.8839703,17.2693125 11.8839703,13.8989912 C11.8839703,10.5294836 14.5492188,7.79716892 17.8370837,7.79716892 Z M97.3450894,9.75944989 C95.1165612,9.75944989 93.3107835,11.6109869 93.3107835,13.8951837 C93.3107835,16.1793806 95.1165612,18.0299412 97.3450894,18.0299412 C99.5734588,18.0299412 101.380507,16.1793806 101.380507,13.8951837 C101.380507,11.6109869 99.5734588,9.75944989 97.3450894,9.75944989 Z M83.6437844,9.75944989 C81.4152562,9.75944989 79.6094785,11.6109869 79.6094785,13.8951837 C79.6094785,16.1793806 81.4152562,18.0299412 83.6437844,18.0299412 C85.8727889,18.0299412 87.6796779,16.1793806 87.6796779,13.8951837 C87.6796779,11.6109869 85.8727889,9.75944989 83.6437844,9.75944989 Z M111.045775,9.75944989 C108.817882,9.75944989 107.010993,11.6109869 107.010993,13.8951837 C107.010993,16.1793806 108.817882,18.0299412 111.045775,18.0299412 C113.27478,18.0299412 115.081827,16.1793806 115.081827,13.8951837 C115.081827,11.6109869 113.27478,9.75944989 111.045775,9.75944989 Z M4.52515999,10.6218896 C4.52172599,10.6220437 4.51346309,10.6221862 4.50079309,10.6223177 L4.37526214,10.622981 C4.34665088,10.6230717 4.3144761,10.6231529 4.27915958,10.6232255 L1.99278489,10.6231913 L1.99278489,17.9598598 L4.52515999,17.9598598 C6.49571993,17.9598598 8.09925058,16.3161102 8.09925058,14.2955121 C8.09925058,12.2693816 6.49571993,10.6218896 4.52515999,10.6218896 Z M17.836925,9.75935226 C15.9385962,9.75935226 14.350623,11.1050075 13.9210463,12.9150521 L13.9210463,12.9150521 L21.7540737,12.9150521 C21.323862,11.1050075 19.7358888,9.75935226 17.836925,9.75935226 Z M47.4533471,9.75935226 C45.555177,9.75935226 43.9675213,11.1050075 43.5379446,12.9150521 L43.5379446,12.9150521 L51.3706545,12.9150521 C50.9407603,11.1050075 49.3527871,9.75935226 47.4533471,9.75935226 Z M4.20258062,2.03996124 L1.99278489,2.03996124 L1.99278489,8.59038955 L4.20258062,8.59038955 C5.96438471,8.59038955 7.39789444,7.12204702 7.39789444,5.31623304 C7.39789444,3.51009363 5.96438471,2.03996124 4.20258062,2.03996124 L4.20258062,2.03996124 Z" id="形状结合" fill="#101010"></path>
                <g id="编组" transform="translate(0.000127, 0.000000)">
                    <g transform="translate(61.449831, 7.790319)">
                        <mask id="mask-2" fill="white">
                            <use xlink:href="#path-1"></use>
                        </mask>
                        <g id="Clip-6"></g>
                        <polygon id="Fill-5" fill="#CF0A2C" mask="url(#mask-2)" points="2.08470097 0 0 0 3.97271106 12.2096651 6.05899953 12.2096651"></polygon>
                    </g>
                    <g transform="translate(66.846257, 3.495042)">
                        <mask id="mask-4" fill="white">
                            <use xlink:href="#path-3"></use>
                        </mask>
                        <g id="Clip-8"></g>
                        <polygon id="Fill-7" fill="#CF0A2C" mask="url(#mask-4)" points="9.3267032 0 5.00458407 13.2324933 2.08470097 4.29519477 0 4.29519477 3.98906228 16.5050226 6.02264585 16.5050226 11.4123567 0"></polygon>
                    </g>
                    <g>
                        <mask id="mask-6" fill="white">
                            <use xlink:href="#path-5"></use>
                        </mask>
                        <g id="Clip-10"></g>
                    </g>
                    <g transform="translate(105.092535, 3.495075)">
                        <mask id="mask-8" fill="white">
                            <use xlink:href="#path-7"></use>
                        </mask>
                        <g id="Clip-16"></g>
                    </g>
                    <g transform="translate(11.883843, 7.797169)">
                        <mask id="mask-10" fill="white">
                            <use xlink:href="#path-9"></use>
                        </mask>
                        <g id="Clip-18"></g>
                    </g>
                    <g transform="translate(41.500742, 7.797169)">
                        <mask id="mask-12" fill="white">
                            <use xlink:href="#path-11"></use>
                        </mask>
                        <g id="Clip-20"></g>
                    </g>
                </g>
            </g>
        </g>
    </g>
</svg>