<?xml version="1.0" encoding="UTF-8"?>
<svg width="52px" height="52px" viewBox="0 0 52 52" version="1.1" xmlns="http://www.w3.org/2000/svg" xmlns:xlink="http://www.w3.org/1999/xlink">
    <title>默认头像</title>
    <g id="页面-1" stroke="none" stroke-width="1" fill="none" fill-rule="evenodd">
        <g id="1未登录" transform="translate(-16.000000, -110.000000)">
            <g id="默认头像" transform="translate(16.000000, 110.000000)">
                <circle id="椭圆形" stroke="#979797" fill="#BCBCBC" cx="27.0833333" cy="27.0833333" r="21.1666667"></circle>
                <path d="M26,0 C11.6535714,0 0,11.6535714 0,26 C0,40.3464286 11.6535714,52 26,52 C40.3464286,52 52,40.3464286 52,26 C52,11.6535714 40.3464286,0 26,0 Z M18.6178571,18.1071429 C18.85,14.3928571 21.8678571,11.4214286 25.5821429,11.1892857 C29.9,10.9571429 33.4285714,14.3928571 33.4285714,18.6178571 C33.4285714,22.7035714 30.0857143,26.0464286 26,26.0464286 C21.7285714,26.0464286 18.3392857,22.425 18.6178571,18.1071429 L18.6178571,18.1071429 Z M40.8571429,39.6035714 C40.8571429,40.3 40.3,40.8571429 39.6035714,40.8571429 L12.4428571,40.8571429 C11.7464286,40.8571429 11.1892857,40.3 11.1892857,39.6035714 L11.1892857,35.8892857 C11.1892857,30.9678571 21.0785714,28.4607143 26,28.4607143 C30.9214286,28.4607143 40.8107143,30.9214286 40.8107143,35.8892857 L40.8571429,39.6035714 L40.8571429,39.6035714 Z" id="Shape" fill="#EBEBEB" fill-rule="nonzero"></path>
            </g>
        </g>
    </g>
</svg>